<?xml version="1.0" encoding="utf-8"?>
<!-- Generator: Adobe Illustrator 27.2.0, SVG Export Plug-In . SVG Version: 6.00 Build 0)  -->
<svg version="1.1" id="Layer_1" xmlns="http://www.w3.org/2000/svg" xmlns:xlink="http://www.w3.org/1999/xlink" x="0px" y="0px"
	 viewBox="0 0 500 500" style="enable-background:new 0 0 500 500;" xml:space="preserve">
<style type="text/css">
	.st0{fill:#DA2128;}
	.st1{fill:#FFFFFF;}
</style>
<g>
	<rect y="199" class="st0" width="500" height="102.1"/>
	<g>
		<path class="st1" d="M480.2,222c0,2-1.6,10.4-3,15.5c-0.5,2-1.5,2.8-3.1,2.8c-1.7,0-2.3-1.2-2.3-4.3c-0.1-6.3-0.3-10.2-4.7-10.2
			c-0.9,0-1.4,0.4-1.6,1.3c-1.4,7.8-3.3,19.8-6.6,43.5c-0.1,0.5-0.1,1.2-0.1,1.6c0,2.5,0.1,3,1.5,3.8c1,0.5,1.4,1.2,1.4,2.3
			c0,1.8-1.9,2.3-3.4,2.3c-1.9,0-4-0.4-8.3-0.4c-4.1,0-5.9,0.4-8.1,0.4c-2.8,0-3.4-1-3.4-2.4c0-1.2,0.6-1.9,1.6-2.3
			c1.6-0.7,2.6-1,3.2-4.4c2.9-15.5,5.9-40.6,6.3-42.9c0.3-1.7,0-2.8-1.1-2.8c-5.7,0-6.2,4.5-7.8,10c-1,3.7-2.5,4.4-3.8,4.4
			c-1.9,0-2.3-1.1-2.3-3.3c0-1.7,2.2-13.1,2.6-15.2c0.4-1.8,0.8-2.8,3.6-2.8c2.3,0,2.8,0.8,4.9,0.8H472c2.2,0,3.5-0.8,5.2-0.8
			C479.8,219,480.2,220.3,480.2,222"/>
		<path class="st1" d="M396.9,222.2c0,1.4-0.8,1.9-2.2,2.5c-0.9,0.4-1.9,0.7-2.3,3.2c-3.8,20.8-6.6,43.7-6.6,45.2
			c0,1.6,0.4,2.3,1.7,2.9c0.8,0.4,1.3,1,1.3,2.2c0,1.6-1.3,2.4-3.6,2.4c-1.9,0-4.2-0.3-7.8-0.3c-4,0-6.3,0.3-8.4,0.3
			c-3.2,0-3.5-1.2-3.5-2.3c0-1.1,0.6-1.9,2.2-2.7c1.1-0.5,2-1,2.6-4.2c1-4.8,3.4-20.8,4.9-32h-0.2c-10.2,22.5-13.1,30.5-13.1,30.5
			c-0.3,0.7-0.9,1.8-1.9,1.8h-3.1c-0.7,0-1.1-0.4-1.3-1.6l-5-30.2h-0.2c-2.8,20.3-3.4,25.8-3.4,25.8c-0.3,2.3-0.6,7.3-0.6,7.5
			c0,1.9,0.6,2.5,1.4,2.8c0.8,0.3,1.6,0.9,1.6,2.4c0,1.6-1.3,2.3-3.2,2.3c-1,0-2.5-0.3-4.6-0.3c-2.5,0-3.2,0.3-4.4,0.3
			c-2.4,0-3.3-0.9-3.3-2.2c0-1.8,1.1-2.3,2.2-2.7c1.6-0.5,2.3-2.2,2.8-4.6c2-9.8,5.8-41.4,6-43.2c0.3-2.4-0.3-2.9-1.7-3.5
			c-1.4-0.6-1.9-1.5-1.9-2.5c0-1.4,1.1-2.3,3.2-2.3c2,0,4.2,0.4,7.8,0.4c2.7,0,4.3-0.4,5.7-0.4c2.7,0,3.7,0.8,4.1,3.3l3.4,22.3h0.2
			c5.4-11.8,9.6-22.1,9.6-22.1c1-2.3,1.8-3.5,4.7-3.5c1.6,0,3.9,0.4,7.1,0.4c3,0,4.9-0.4,6.2-0.4
			C396.1,219.6,396.9,220.5,396.9,222.2"/>
		<path class="st1" d="M297.9,222c0,1.6-0.7,2.2-2.5,2.8c-1.5,0.6-1.7,1.3-2.3,4.7c-2.5,13.9-7.4,47.9-7.4,47.9
			c-0.4,2.8-1,3.3-2.8,3.3h-3.2c-1,0-2.1-0.7-2.9-3.1L263.4,240h-0.3c-2.1,14.9-3.3,24-3.3,24c-0.4,3-0.7,8.5-0.7,9.1
			c0,1.8,0.7,2.4,1.6,2.8c0.9,0.5,1.8,0.8,1.8,2.4c0,1.7-1.4,2.4-3.4,2.4c-1.1,0-2.5-0.3-4.6-0.3c-2.7,0-3.7,0.3-4.9,0.3
			c-2,0-3-0.8-3-2.3c0-1.3,0.7-2.2,2.2-2.7c1.4-0.5,2-1.6,2.5-4c1.5-6.6,5.3-33.6,6.2-41.5c0.1-1.3,0.2-2.8,0.2-3.6
			c0-1-0.5-1.6-1.3-1.9c-1.9-0.7-2.4-1.6-2.4-2.8c0-1.6,1.2-2.2,2.8-2.2c1.9,0,4.2,0.4,6.7,0.4c2.2,0,3.8-0.4,5.9-0.4
			c1.6,0,2.2,0.5,3.1,3.1l9.9,28h0.2c0.5-2.8,1.9-13.1,1.9-13.1c0.4-3,0.8-8.4,0.8-9.9c0-2-0.6-2.7-1.3-3c-1-0.4-2-1-2-2.4
			c0-1.6,1.2-2.7,3.5-2.7c1.1,0,3.4,0.4,4.8,0.4c1.5,0,3.5-0.4,4.4-0.4C296.7,219.6,297.9,220.2,297.9,222"/>
		<path class="st1" d="M209,224.4c-0.2,2-1.3,7.2-2.5,11.4c-0.4,1.4-1.2,2.1-2.6,2.1c-1.6,0-2.6-1-2.5-2.8c0-1.4,0.2-2.8,0.2-5.3
			c0-2.2-2.6-5-7.2-5c-4.3,0-7.2,2.2-7.2,6c0,3.3,1.4,5,3.4,7.2c3,3.4,4.5,5.1,8.1,9c3.4,3.7,6.6,8.7,6.6,16.4
			c0,9.6-8.1,17.7-21.3,17.7c-7.1,0-12.1-2.5-14.6-3.7c-1.1-0.5-1.7-1.3-1.5-2.9c0.1-1.2,1.6-7.4,3.1-12.1c0.7-2.1,1.4-3.1,3.3-3.1
			c1.3,0,2.2,0.8,2.2,2.7c0,1.1-0.2,2.6-0.3,4.9c-0.1,2.2-0.5,7.8,8.5,7.8c4.1,0,6.9-2.7,6.9-6.2c0-2.7-0.5-5.4-3.7-8.9
			c-2.3-2.5-4-4.2-6.6-7.2c-5-5.6-7-9.6-7-16.1c0-11.4,9-17.7,20.5-17.7c6,0,9.4,1.3,11.8,2.3C208.4,221.8,209.2,222.6,209,224.4"/>
		<path class="st1" d="M171.2,236.1c0,1.9-0.4,4.4-1,6.3c-0.9,2.9-2,3.8-3.8,3.8c-1.3,0-2.4-0.1-3.1-0.1c-1.9,0-2.9,0.7-4,1.8
			c-1.2,1.2-1.9,1.4-2.8,1.4c-1,0-1.3-0.7-1.3-2.3c0-1.1,0.2-2.8,0.7-5.1c0.6-2.8,1.7-5.6,3.5-5.6c1,0,1.6,0.4,3.5,0.4
			c2.8,0,3.8-0.6,4.6-1.4c1-1.1,1.4-1.4,2.5-1.4C170.8,233.8,171.2,234.8,171.2,236.1"/>
		<path class="st1" d="M170.5,251.8c0,1.9-0.4,4.4-1,6.3c-0.9,2.9-2,3.8-3.8,3.8c-1.3,0-2.4-0.2-3.1-0.2c-1.9,0-2.9,0.8-4,1.8
			c-1.2,1.2-1.9,1.4-2.8,1.4c-1,0-1.3-0.7-1.3-2.3c0-1.1,0.2-2.8,0.7-5.1c0.6-2.8,1.7-5.6,3.5-5.6c1.1,0,1.6,0.4,3.5,0.4
			c2.8,0,3.8-0.6,4.6-1.4c1-1,1.4-1.4,2.5-1.4C170.2,249.5,170.5,250.5,170.5,251.8"/>
		<path class="st1" d="M126.3,222c0,2-1.6,10.4-3,15.5c-0.6,2-1.5,2.8-3.1,2.8c-1.7,0-2.3-1.2-2.3-4.3c-0.1-6.3-0.3-10.2-4.7-10.2
			c-0.9,0-1.4,0.4-1.6,1.3c-1.4,7.8-3.3,19.8-6.6,43.5c-0.1,0.5-0.1,1.2-0.1,1.6c0,2.5,0,3,1.5,3.8c1,0.5,1.4,1.2,1.4,2.3
			c0,1.8-1.9,2.3-3.4,2.3c-1.9,0-4-0.4-8.3-0.4c-4.1,0-5.9,0.4-8.1,0.4c-2.8,0-3.4-1-3.4-2.4c0-1.2,0.6-1.9,1.6-2.3
			c1.6-0.7,2.6-1,3.2-4.4c2.9-15.5,5.9-40.6,6.3-42.9c0.3-1.7,0-2.8-1-2.8c-5.7,0-6.2,4.5-7.8,10c-1,3.7-2.5,4.4-3.8,4.4
			c-1.9,0-2.3-1.1-2.3-3.3c0-1.7,2.2-13.1,2.6-15.2c0.4-1.8,1.1-2.8,3.9-2.8c2.1,0,2.2,0.8,4.6,0.8h26.4c2.2,0,3.5-0.8,5.2-0.8
			C125.9,219,126.3,220.3,126.3,222"/>
		<path class="st1" d="M84.9,263.3c0,2-1.9,10.3-3.5,15.1c-0.8,2.3-1.6,2.8-4.9,2.8c-2.4,0-8.8-0.9-17.9-0.9c-5.3,0-8.8,0.4-9.5,0.4
			c-2.8,0-3.4-0.8-3.4-2.4c0-1.2,0.6-1.9,1.6-2.3c1.6-0.7,2.5-1,3.2-4.4c2.9-14.5,6.1-40.1,6.3-42.4c0.3-3.4-0.1-3.9-1.2-4.5
			c-1-0.5-1.6-1.1-1.6-2.3c0-1.6,0.9-2.7,4.4-2.7c1.9,0,4.9,0.4,7.4,0.4c3.6,0,4.9-0.4,6.8-0.4c3.8,0,4.6,0.9,4.6,2.4
			c0,1.3-0.7,2.2-2,2.6c-1.2,0.4-1.9,0.9-2.3,3c-1.5,6.9-3.5,19.2-6.6,42.9c-0.1,0.5-0.1,1.2-0.1,1.6c0,1.4,0.7,2.2,2.5,2.2
			c6.4,0,9.8-5.8,11.4-11.7c0.4-1.6,1.3-2.4,2.8-2.4C83.9,260.3,84.9,260.9,84.9,263.3"/>
		<path class="st1" d="M51.2,222c0,1.4-0.7,2.1-2,2.6c-1.2,0.5-1.9,0.9-2.3,3c-1.5,6.9-3.5,19.2-6.7,42.9c-0.1,0.5-0.1,1.3-0.1,1.8
			c0,2.5,0,3,1.5,3.7c1.1,0.5,1.4,1.2,1.4,2.3c0,1.6-1.3,2.3-3.3,2.3c-2.2,0-5.7-0.4-9-0.4c-2.9,0-5.3,0.4-7.5,0.4
			c-2.8,0-3.4-0.8-3.4-2.4c0-1.2,0.6-1.8,1.6-2.3c1.5-0.7,2.6-1,3.2-4.4c2.8-14.5,6.1-40.1,6.3-42.4c0.3-3.4-0.1-3.9-1.2-4.5
			c-1-0.5-1.6-1.3-1.6-2.5c0-1.6,1.1-2.5,4.4-2.5c1.8,0,4.1,0.4,7.5,0.4s5.1-0.4,6.7-0.4C50.6,219.6,51.2,220.5,51.2,222"/>
		<path class="st1" d="M434.8,278.2c0,1.6-1.5,2.4-3.6,2.4c-2.1,0-4.2-0.4-7.1-0.4c-3.5,0-5.5,0.4-7.8,0.4c-2.5,0-3.6-0.9-3.6-2.4
			c0-1.4,0.7-2.5,2.5-3.1c1.3-0.5,1.8-1.3,1.9-3.7l0.2-6.8c0-1.1-0.3-1.3-1-1.3H407c-1.1,0-1.4,0.4-1.7,1.1
			c-1.3,2.8-3.1,6.9-3.1,9.3c0,0.7,0.3,1.6,1.4,2c1,0.4,1.6,1.2,1.6,2.4c0,1.4-0.8,2.4-3.1,2.4c-1.4,0-2.8-0.3-5-0.3
			c-2.1,0-3,0.3-4.1,0.3c-2,0-3-0.8-3-2.3c0-1.1,0.7-2.1,1.6-2.4c2.2-0.7,3.2-3.3,3.7-4.4c10.5-24.2,16.7-39.8,16.7-39.8
			c0.6-1.5,1.6-3.9,1.6-4.6c0-1.4-0.5-1.9-1.5-2.4c-0.8-0.4-1.3-0.7-1.3-2.1c0-1.7,1.2-2.5,4.5-2.5c7,0,9-1.1,12.2-1.1
			c2.2,0,2.8,1.1,2.9,4.3c0,0,0.4,28.7,1.5,50.8c0.1,1.1,0.7,1.4,1.4,1.8C434.2,276.2,434.8,276.9,434.8,278.2 M417,254.2
			c0,0-0.1-11.6-0.2-18.3h-0.2l-6.6,16.7c-0.4,1.1-1,2.2-1,2.8c0,0.6,0.4,0.8,0.9,0.8h5.8C416.8,256.2,417,255.9,417,254.2"/>
		<path class="st1" d="M339.8,241.9c0,20.5-12.3,39.4-30,39.4c-11.1,0-17.9-8.8-17.9-21.5c0-23.8,12.2-40.9,29.7-40.9
			C333.9,218.8,339.8,226.7,339.8,241.9 M325,233.2c0-7.2-1.7-8.8-5.2-8.8c-9.9,0-13.2,32.5-13.2,41.7c0,8,2,9.6,5.1,9.6
			C320.3,275.6,325,245.5,325,233.2"/>
		<path class="st1" d="M245.3,278.2c0,1.6-1.5,2.4-3.6,2.4c-2.1,0-4.3-0.4-7.1-0.4c-3.5,0-5.5,0.4-7.8,0.4c-2.5,0-3.6-0.9-3.6-2.4
			c0-1.4,0.8-2.5,2.5-3.1c1.3-0.5,1.8-1.3,1.9-3.7l0.1-6.8c0-1.1-0.3-1.3-1-1.3h-9.3c-1.1,0-1.4,0.4-1.7,1.1
			c-1.3,2.8-3.1,6.9-3.1,9.3c0,0.7,0.3,1.6,1.3,2c1,0.4,1.6,1.2,1.6,2.4c0,1.4-0.8,2.4-3.1,2.4c-1.4,0-2.8-0.3-5-0.3
			c-2.1,0-3,0.3-4.1,0.3c-2,0-3-0.8-3-2.3c0-1.1,0.7-2.1,1.6-2.4c2.2-0.7,3.2-3.3,3.7-4.4c10.5-24.2,16.7-39.8,16.7-39.8
			c0.6-1.5,1.6-3.9,1.6-4.6c0-1.4-0.5-1.9-1.5-2.4c-0.8-0.4-1.3-0.7-1.3-2.1c0-1.7,1.2-2.5,4.6-2.5c7,0,9-1.1,12.2-1.1
			c2.2,0,2.8,1.1,2.9,4.3c0,0,0.4,28.7,1.5,50.8c0.1,1.1,0.7,1.4,1.4,1.8C244.7,276.2,245.3,276.9,245.3,278.2 M227.4,254.2
			c0,0-0.1-11.6-0.2-18.3H227l-6.6,16.7c-0.4,1.1-1,2.2-1,2.8c0,0.6,0.4,0.8,0.9,0.8h5.8C227.3,256.2,227.5,255.9,227.4,254.2"/>
		<path class="st1" d="M154.6,278.2c0,1.6-1.5,2.4-3.6,2.4c-2.1,0-4.3-0.4-7.1-0.4c-3.5,0-5.5,0.4-7.8,0.4c-2.5,0-3.6-0.9-3.6-2.4
			c0-1.4,0.7-2.5,2.5-3.1c1.3-0.5,1.8-1.3,1.9-3.7l0.1-6.8c0-1.1-0.3-1.3-1-1.3h-9.3c-1.1,0-1.4,0.4-1.7,1.1
			c-1.3,2.8-3.1,6.9-3.1,9.3c0,0.7,0.3,1.6,1.3,2c1,0.4,1.6,1.2,1.6,2.4c0,1.4-0.8,2.4-3.1,2.4c-1.4,0-2.8-0.3-5-0.3
			c-2.1,0-3,0.3-4.1,0.3c-2,0-3-0.8-3-2.3c0-1.1,0.7-2.1,1.6-2.4c2.2-0.7,3.2-3.3,3.7-4.4c10.5-24.2,16.7-39.8,16.7-39.8
			c0.6-1.5,1.6-3.9,1.6-4.6c0-1.4-0.5-1.9-1.5-2.4c-0.8-0.4-1.3-0.7-1.3-2.1c0-1.7,1.2-2.5,4.6-2.5c7,0,9-1.1,12.2-1.1
			c2.2,0,2.8,1.1,2.9,4.3c0,0,0.4,28.7,1.5,50.8c0.1,1.1,0.7,1.4,1.4,1.8C154,276.2,154.6,276.9,154.6,278.2 M136.8,254.2
			c0,0-0.1-11.6-0.2-18.3h-0.2l-6.6,16.7c-0.4,1.1-1,2.2-1,2.8c0,0.6,0.4,0.8,0.9,0.8h5.8C136.6,256.2,136.8,255.9,136.8,254.2"/>
	</g>
</g>
</svg>
