<?xml version="1.0" encoding="utf-8"?>
<!-- Generator: Adobe Illustrator 27.2.0, SVG Export Plug-In . SVG Version: 6.00 Build 0)  -->
<svg version="1.1" id="Layer_1" xmlns="http://www.w3.org/2000/svg" xmlns:xlink="http://www.w3.org/1999/xlink" x="0px" y="0px"
	 viewBox="0 0 500 500" style="enable-background:new 0 0 500 500;" xml:space="preserve">
<style type="text/css">
	.st0{fill:#00529C;}
</style>
<g>
	<g>
		<path class="st0" d="M363,245.8h8.2c0-1.3,0.2-1.9,0.2-2.9c0-6.5-1.2-8.9-4.2-8.9c-3,0-4,2.4-4,9.5L363,245.8L363,245.8z
			 M390,250.2c0,1,0,2.5-0.2,4.5h-27.1v2c0,8.4,2.5,12.9,7.3,12.9c2.6,0,5.8-2.5,6.1-7.9h13.7c-0.5,12.6-9,20.2-22.8,20.2
			c-7.3,0-14.3-2.7-18.5-6.9c-4.7-4.8-6.9-12.1-6.9-22.8c0-12.4,2.5-20.3,7.8-24.9c4.3-3.7,10.1-5.7,17.1-5.7
			C382.1,221.9,390,231.5,390,250.2 M389,196h24.3v30.7c4.2-3.5,7.9-4.8,13.4-4.8c7.5,0,11.7,3.5,13,10.7v-10h6V210l19.2-5.2v17.8
			h6.8v12.9h-6.8v24.3c0,5.5,0.7,6.9,3.4,6.9c1.1,0,1.6-0.1,3.4-0.6v13.4c-4.6,1.9-7.5,2.5-11.7,2.5c-9.9,0-14.3-4.5-14.3-14.9
			v-31.6H440c0,0.6,0.1,1.1,0.1,1.7v31.2h3.1v12.9h-22.4v-36.2v-2c-0.1-3.7-1.2-5.3-3.6-5.3c-2.5,0-3.9,1.8-3.9,4.8v25.8h3.2v12.9
			H389v-13h5.1v-57.4H389L389,196L389,196z M313.5,196h24.8v72.3h3.2v12.9h-23.7h-4.4h-17.8v-5.5c-4.5,4.8-7.7,6.4-13.1,6.4
			c-9.8,0-15.6-7-15.6-19.3c0-12.2,6.2-19.4,17-19.4c4.3,0,7.2,1.1,10.9,4v-3.9c0-5.8-1.9-8.3-8.6-8.3c-2.6,0-3.9,1.6-4.4,2.4h-12.1
			v-2.4v-10.3c7.9-2.4,13-3.2,19.2-3.2c7.5,0,14.1,1.8,18.4,4.8c4.3,3,6.4,8.7,6.4,17.2v24.5h3.8h1.2v-57.4h-5.6V196H313.5z
			 M291.9,254.5c-3.6-1.1-5.2,1.5-5.3,7.3c0.2,5.8,1.8,8.3,5.3,7.3c2.8-0.8,3.7-2.9,3.7-7.3C295.6,257.4,294.7,255.3,291.9,254.5
			 M474,222.6h22.9v45.7h3.1v12.9h-25.9v-12.9h3.6v-32.8h-3.6L474,222.6L474,222.6z M475.2,207c0-14.3,24.1-14.3,24.1,0
			S475.2,221.2,475.2,207 M59.3,211.8l-15.2,22.8l16.3,30.8h0.8c-0.1-0.8-0.1-1.7-0.1-2.6c0-12.2,6.2-19.4,17-19.4
			c4.3,0,7.2,1.1,10.9,4v-3.9c0-5.8-1.9-8.3-8.6-8.3c-2.6,0-3.9,1.6-4.4,2.4H64.2v-2.4v-10.3c7.9-2.4,13-3.2,19.2-3.2
			c7.5,0,14.1,1.8,18.4,4.8c4.3,3,6.4,8.7,6.4,17.2v24.5h3.8v12.9H89.7v-5.5c-4.5,4.8-7.7,6.4-13.1,6.4c-5.1,0-9.2-1.9-11.8-5.4v4.6
			H37.4v-14.6l-10.7-21.8v22.6v13.7H0v-15.8h5.8v-53.6H0V196h26.7v13.7V237l13.4-25.2H36V196h28.8v15.8H59.3z M85.9,254.5
			c-3.6-1.1-5.2,1.5-5.3,7.3c0.2,5.8,1.8,8.3,5.3,7.3c2.8-0.8,3.7-2.9,3.7-7.3C89.6,257.4,88.6,255.3,85.9,254.5 M161.4,281.2h-21.9
			v-4c-4,3.5-7.7,4.8-13.2,4.8c-9.2,0-13.6-4.9-13.6-15.4v-31.1H109v-12.9h23.3v36c0,5,1.1,7.4,3.5,7.4c2.3,0,3.7-1.8,3.7-4.8v-25.8
			h-3.8v-12.9h23.3v45.7h2.3L161.4,281.2L161.4,281.2z M189,238.8c-3.2,0-4.1,1.9-4.2,8.8l-0.1,5.9v1.3c0,8.7,1.1,11.5,4.6,11.5
			c3.5,0,4.5-2.9,4.5-13C193.7,242.4,192.5,238.8,189,238.8 M189.9,304h-29.3v-13.2h4.6v-55.3h-4.6v-12.9h23.8v7.5
			c3.2-5.3,8.1-8.3,13.8-8.3c7.5,0,12,3.7,14.3,12.4v-11.6h23.8v7.5c3.2-5.3,8.1-8.3,13.8-8.3c11.7,0,16.3,9.2,16.3,32.3
			c0,12.6-1.5,19.5-5.3,23.9c-2.7,3.2-6.3,4.8-10.6,4.8c-5.3,0-9.4-1.9-13.5-6.7v14.7h4.9V304h-29.3v-13.2h4.6v-55.3h-4.2
			c1.1,4.8,1.6,10.9,1.6,18.6c0,12.6-1.5,19.5-5.3,23.9c-2.7,3.2-6.3,4.8-10.6,4.8c-5.3,0-9.4-1.9-13.5-6.7v14.7h4.9L189.9,304
			L189.9,304z M240.9,238.8c-3.2,0-4.1,1.9-4.2,8.8l-0.1,5.9v1.3c0,8.7,1.1,11.5,4.6,11.5c3.5,0,4.5-2.9,4.5-13
			C245.6,242.4,244.4,238.8,240.9,238.8"/>
	</g>
</g>
</svg>
