<?xml version="1.0" encoding="utf-8"?>
<!-- Generator: Adobe Illustrator 27.2.0, SVG Export Plug-In . SVG Version: 6.00 Build 0)  -->
<svg version="1.1" id="layer" xmlns="http://www.w3.org/2000/svg" xmlns:xlink="http://www.w3.org/1999/xlink" x="0px" y="0px"
	 viewBox="0 0 500 500" style="enable-background:new 0 0 500 500;" xml:space="preserve">
<g>
	<path d="M0,208.3v83.3h500v-83.3L0,208.3L0,208.3z M42.8,271.2c-6.5,0-14.8-2-21.3-8c0.1,0,4.6-6.1,4.6-6.1s6.6,6.7,16.2,6.7
		c9.1,0,11.2-3.3,11.2-5.2c0-4-6.1-4.4-12.6-5.2c-8.4-1.1-19.2-2.5-19.2-12.3c0-7.2,8.9-12.3,18.8-12.3c8,0,14.1,2.1,19.2,6.4
		c0.1,0.1-4.5,6.2-4.5,6.2s-5.4-5.4-14.5-5.4c-7.2,0-10.8,3.1-10.8,5c0,3.9,6,4.1,13.5,5.1c10,1.3,18.5,3.1,18.5,12.2
		C61.9,265.5,54,271.2,42.8,271.2z M145.8,270.3h-8.2v-4.8c-3,3.4-7.2,5.7-13,5.7c-11.8,0-20.6-9.5-20.6-21.3
		c0-11.8,8.8-21.2,20.6-21.2c5.7,0,9.9,2.2,13,5.7v-4.7h8.2V270.3z M228.8,270.3h-8.2v-20.4c0-8.6-5.1-14-11.7-14
		c-6.8,0-12.7,5.2-12.8,15.1v19.3h-8.3v-40.9h8v7c2.3-4.9,8.5-7.8,14.2-7.8c9.2,0,18.7,5.7,18.7,19.9L228.8,270.3L228.8,270.3z
		 M291.6,271.2c-11.8,0-21.2-9.5-21.2-21.2s9.5-21.2,21.2-21.2c11.8,0,21.2,9.5,21.2,21.2C312.8,261.7,303.4,271.2,291.6,271.2z
		 M401.4,245.8v24.6h-8.2v-24.6c0-9.5-4.6-10.2-6.7-10.2c-1.7,0-7.4,0.6-7.4,10.6v24.2H371v-24.6c0-9.5-4.6-10.2-6.7-10.2
		c-1.7,0-7.2,0.6-7.2,10.6v24.2H349v-40.9h7.9v4.7c2.2-4.2,6.8-5.5,9.7-5.5c4.5,0,8.4,2.1,10.6,6.6c2.8-5.2,8.1-6.6,11.2-6.6
		C394.2,228.6,401.7,232.1,401.4,245.8z M479.1,270.3h-8.2v-4.8c-3,3.4-7.3,5.7-13,5.7c-11.8,0-20.6-9.5-20.6-21.3
		c0-11.8,8.8-21.2,20.6-21.2c5.7,0,9.9,2.2,13,5.7v-4.7h8.2V270.3z"/>
	<path d="M458.8,235.5c-8.9,0-13.1,7.6-13.1,14.3c0,6.9,4.2,14.3,13.1,14.3c6.2,0,12.5-4.5,12.5-14.3
		C471.1,240,465,235.5,458.8,235.5z"/>
	<path d="M125.4,235.5c-8.9,0-13.1,7.6-13.1,14.3c0,6.9,4.2,14.3,13.1,14.3c6.3,0,12.5-4.5,12.5-14.3S131.7,235.5,125.4,235.5z"/>
	<path d="M291.6,235.9c-7.2,0-13.1,5.6-13.1,14c0,8.2,5.9,14,13.1,14c7.2,0,13.1-5.7,13.1-14C304.7,241.5,298.8,235.9,291.6,235.9z"
		/>
</g>
</svg>
