<?xml version="1.0" encoding="utf-8"?>
<!-- Generator: Adobe Illustrator 27.2.0, SVG Export Plug-In . SVG Version: 6.00 Build 0)  -->
<svg version="1.1" id="Layer_1" xmlns="http://www.w3.org/2000/svg" xmlns:xlink="http://www.w3.org/1999/xlink" x="0px" y="0px"
	 viewBox="0 0 500 500" style="enable-background:new 0 0 500 500;" xml:space="preserve">
<style type="text/css">
	.st0{fill-rule:evenodd;clip-rule:evenodd;fill:#ED1C24;}
</style>
<g>
	<path class="st0" d="M479.6,284.5c-0.8,3.7-2.4,9-5.7,9c-4.1,0-5-4.4-5-13c0-11.3,2.8-19.8,10.8-22.7L479.6,284.5 M455.4,238.7
		c0,6.1,3.2,8.8,6.9,8.8c3.1,0,6.6-2.1,6.6-7.8c0-5.8-3.1-8.1-6-8.1c-2,0-3.6,0.7-4.4,1.3c1.3-2.8,7-7.2,13-7.2
		c3.8,0,5.6,1.1,6.5,2.4c0.8,1.2,1.5,2.9,1.5,9v19.5c-17.9,3.6-25.8,11.8-25.8,23.8c0,9.8,4.2,16.2,15,16.2c6.9,0,9.7-2.9,11.4-9.6
		c0.3,3.5,1.5,5.8,3.3,7.4c1.5,1.3,3.7,2.1,6.6,2.1c4.6,0,7.7-0.5,9.8-5.4l-1.1-0.5c-0.7,1.5-1.5,2.3-2.4,2.3
		c-1.3,0-1.7-0.9-1.7-3.3v-43.8c0-14.3-3.6-21.8-19.9-21.8C462.8,224,455.4,231.3,455.4,238.7 M352.6,284.5c-0.8,3.7-2.4,9-5.7,9
		c-4.1,0-5-4.4-5-13c0-11.3,2.8-19.8,10.8-22.7L352.6,284.5 M328.5,238.7c0,6.1,3.2,8.8,6.9,8.8c3.1,0,6.6-2.1,6.6-7.8
		c0-5.8-3.1-8.1-6-8.1c-2,0-3.6,0.7-4.4,1.3c1.3-2.8,7-7.2,13-7.2c3.8,0,5.6,1.1,6.5,2.4c0.8,1.2,1.5,2.9,1.5,9v19.5
		c-17.9,3.6-25.8,11.8-25.8,23.8c0,9.8,4.2,16.2,15,16.2c6.9,0,9.7-2.9,11.4-9.6c0.3,3.5,1.5,5.8,3.3,7.4c1.5,1.3,3.7,2.1,6.6,2.1
		c4.6,0,7.7-0.5,9.8-5.4l-1.1-0.5c-0.7,1.5-1.5,2.3-2.4,2.3c-1.3,0-1.7-0.9-1.7-3.3v-43.8c0-14.3-3.6-21.8-19.9-21.8
		C335.9,224,328.5,231.3,328.5,238.7 M74.9,284.5c-0.8,3.7-2.4,9-5.7,9c-4.1,0-5-4.4-5-13c0-11.3,2.8-19.8,10.8-22.7L74.9,284.5
		 M477,211.2c0,4.9,2.7,7.7,7,7.7c4.2,0,7-2.8,7-7.7c0-4.6-2.8-7.6-7-7.6C479.7,203.7,477,206.6,477,211.2 M458.8,211.2
		c0,4.9,2.7,7.7,7.2,7.7c4.4,0,7.2-2.8,7.2-7.7c0-4.6-2.8-7.6-7.2-7.6C461.5,203.7,458.8,206.6,458.8,211.2 M303.1,295.8h21.6v-1.1
		c-1.9,0-3.6-0.4-3.6-4.6v-86.7c0,0-14.7,0.7-20.6,0.7v1.1c2.9,0,5.8,2.4,5.8,6.2v78.7c0,4.2-1.5,4.6-3.3,4.6V295.8 M299,282.5
		c-2.5,6.6-6.2,11.4-12.7,11.4c-9.3,0-11-8-11-23.5v-7.7h5.6c10.4,0,19.5-3.2,19.5-18.3c0-7.6-0.9-20.4-18.3-20.4
		c-14.1,0-23.1,10-23.1,36.1c0,25.9,7.7,36.5,23.8,36.5c11.3,0,15.3-6.1,17.9-13.5L299,282.5 M275.2,246.5c0-17.5,2.9-21.5,6-21.5
		c3.9,0,4.2,7.4,4.2,15.8c0,14.1-1.5,20.7-6.6,20.7h-3.6L275.2,246.5 M50.7,238.7c0,6.1,3.2,8.8,6.9,8.8c3.1,0,6.6-2.1,6.6-7.8
		c0-5.8-3.1-8.1-6-8.1c-2,0-3.6,0.7-4.4,1.3c1.3-2.8,6.9-7.2,13-7.2c3.8,0,5.6,1.1,6.5,2.4c0.8,1.2,1.5,2.9,1.5,9v19.5
		c-17.9,3.6-25.8,11.8-25.8,23.8c0,9.8,4.2,16.2,15,16.2c6.9,0,9.7-2.9,11.4-9.6c0.3,3.5,1.5,5.8,3.3,7.4c1.5,1.3,3.7,2.1,6.6,2.1
		c4.6,0,7.7-0.5,9.8-5.4l-1.1-0.5c-0.7,1.5-1.5,2.3-2.4,2.3c-1.3,0-1.7-0.9-1.7-3.3v-43.8c0-14.3-3.6-21.8-19.9-21.8
		C58.2,224,50.7,231.3,50.7,238.7 M373.7,225.3v1.1c2.5,0,4,2.1,4,7.8v55.9c0,4.2-1.3,4.6-3.3,4.6v1.1h22.2v-1.1
		c-2,0-3.3-0.4-3.3-4.6v-54.3c0.3-1.9,3.3-8.2,8.1-8.2c2.3,0,3.9,1.5,3.9,5.8v56.7c0,4.2-1.5,4.6-3.3,4.6v1.1h22.2v-1.1
		c-1.3,0-3.3-0.4-3.3-4.6v-54.7c0.8-2.4,3.6-7.8,8.1-7.8c2.3,0,3.8,1.1,3.8,5.8v56.7c0,4.2-1.3,4.6-3.3,4.6v1.1h22.2v-1.1
		c-1.3,0-3.3-0.4-3.3-4.6v-51.9c0-11.9-6-14.2-14.1-14.2c-6.9,0-12.3,4.5-13.8,8.6c-1.7-5.3-6-8.6-13.7-8.6c-4.9,0-10.9,2.5-13.5,8
		c0-2.9,0.3-6.6,0.3-6.6L373.7,225.3 M196.4,226.4c2.3,0,3.6,1.3,3.6,4.2v53.2c0,3.1-2.7,10.4-6.9,10.4c-3.5,0-5-2.1-5-8.9v-60
		h-18.5v1.1c2.3,0,3.2,1.2,3.2,4.2v50.8c0,11.5,6.2,15.1,15.4,15.1c8.4,0,11.3-3.5,12.7-10.6c0,0,0,5.6-0.3,9.8l17.7-0.4v-1.1
		c-2.4,0-3.3-0.3-3.3-4.1v-64.9h-18.6L196.4,226.4 M350.1,211.2c0,4.9,2.7,7.7,7,7.7c4.2,0,7-2.8,7-7.7c0-4.6-2.8-7.6-7-7.6
		C352.8,203.7,350.1,206.6,350.1,211.2 M331.9,211.2c0,4.9,2.7,7.7,7.2,7.7c4.4,0,7.2-2.8,7.2-7.7c0-4.6-2.8-7.6-7.2-7.6
		C334.6,203.7,331.9,206.6,331.9,211.2 M143.6,225.1c5.6,0,6.1,4.2,6.1,35.3c0,28-0.1,35.2-5.7,35.2c-6,0-7-6.9-7-35.2
		C137,232.8,138.5,225.1,143.6,225.1 M96.3,295.8h21.4v-1.1c-1.9,0-3.5-1.5-3.5-6.4v-85c0,0-14.7,0.7-20.6,0.7v1.1
		c2.9,0,5.8,2.4,5.8,6.2v77c0,4.9-1.3,6.4-3.2,6.4L96.3,295.8 M224.8,292.3c0.9,0,2.1,1.1,4,2c2.5,1.2,5.3,2.3,10.2,2.3
		c10.6,0,17-5.8,17-20.3c0-10.4-2.4-16.2-10.9-24l-9-8.2c-5-4.6-6.6-6.6-6.6-11c0-4.9,3.5-8,8.8-8c6.1,0,10,6.1,12.1,12.9
		c0.9,2.9,1.7,6.4,2.1,8.5h1.1v-22.7h-1.1c-0.3,1.7-1.3,2.3-2.5,2.3s-3.2-0.5-4.8-0.9c-2.1-0.5-4.1-1.1-6.9-1.1
		c-11.2,0-16.9,7.3-16.9,19.1c0,9.4,4.5,17,11.4,23.4l7.8,7c5.2,4.6,7.6,7.2,7.6,12.7c0,5.2-2,9.2-8.6,9.2
		c-9.2,0-14.9-12.7-16.3-21.4l-0.3-1.6h-1.2v23.4h1.1C223,293,224,292.3,224.8,292.3 M120.3,260.3c0,30.3,12.2,36.2,23.1,36.2
		c12.5,0,23-9.3,23-36.2c0-28.7-9.2-36.4-23-36.4C131.7,224,120.3,231.8,120.3,260.3 M1.5,244.4c3.2-21.5,7-38.1,18.9-38.1h2.3v78.1
		c0,8.9-1.9,10.2-12.7,10.2v1.2h39.6v-1.3c-9.8,0-11.7-1.2-11.7-10.1v-78.1h2.1c9.7,0,13.1,5.2,16.3,19.1l1.5-0.9v-19.6H1.7L0,244.4
		L1.5,244.4"/>
</g>
</svg>
