<?xml version="1.0" encoding="utf-8"?>
<!-- Generator: Adobe Illustrator 27.2.0, SVG Export Plug-In . SVG Version: 6.00 Build 0)  -->
<svg version="1.1"
	 id="svg40" xmlns:inkscape="http://www.inkscape.org/namespaces/inkscape" xmlns:svg="http://www.w3.org/2000/svg" xmlns:sodipodi="http://sodipodi.sourceforge.net/DTD/sodipodi-0.dtd"
	 xmlns="http://www.w3.org/2000/svg" xmlns:xlink="http://www.w3.org/1999/xlink" x="0px" y="0px" viewBox="0 0 500 500"
	 style="enable-background:new 0 0 500 500;" xml:space="preserve">
<style type="text/css">
	.st0{fill:#0083C3;}
</style>
<sodipodi:namedview  bordercolor="#666666" borderopacity="1.0" fit-margin-bottom="0" fit-margin-left="0" fit-margin-right="0" fit-margin-top="0" height="482.88px" id="namedview42" inkscape:current-layer="g38" inkscape:cx="591.75803" inkscape:cy="-132.32514" inkscape:pagecheckerboard="true" inkscape:pageopacity="0.0" inkscape:pageshadow="2" inkscape:window-height="1017" inkscape:window-maximized="1" inkscape:window-width="1920" inkscape:window-x="1912" inkscape:window-y="-8" inkscape:zoom="0.47232143" pagecolor="#ffffff" scale-x="0.11" showgrid="false" width="1395.54px">
	</sodipodi:namedview>
<g>
	<path id="path2" d="M0,166.6v21h18.3v56.3h24.5v-56.3h18.8v-21H0z"/>
	<path id="path4" d="M87.2,211.4c0.2-0.5,0.4-1.7,0.4-2.5c0-3.2-2.2-5.3-5.3-5.3c-3.2,0-5.7,3.5-5.9,7.7H87.2z M89.2,222.5l18.1,6.8
		c-4,10.9-14.7,15.9-25.9,15.9c-17.4,0-28.9-10.4-28.9-28c0-19.2,10.8-29.8,29.6-29.8c17.5,0,25.5,10.8,25.5,25.7
		c0,1.8-0.4,4.8-0.8,6.8h-31c0,5.1,2.2,8.2,6,8.2C84.6,228.1,88,226.9,89.2,222.5L89.2,222.5z"/>
	<path id="path6" d="M176.6,243.8h-26.9l-9.5-20.4h-2.8v20.4h-24.1v-77.1h24.1v39.1h2.8l7.3-17h26.9l-13,25.4L176.6,243.8z"/>
	<path id="path8" d="M204.3,199.4c2.2-8.3,9.4-12,17.2-12c8.9,0,16.6,5.3,16.6,17.9v38.4H214v-29.6c0-4.5-0.9-6.9-4.4-6.9
		c-2.8,0-5.4,2.1-5.4,8.4v28.1h-24.1v-55h21.2L204.3,199.4z"/>
	<path id="path10" d="M246.3,188.8h24.1v55h-24.1V188.8z"/>
	<path id="path12" d="M258.3,164.3c6.7,0,13,3.4,13,10.3s-6.3,10.3-13,10.3c-6.7,0-13-3.4-13-10.3
		C245.3,167.7,251.6,164.3,258.3,164.3z"/>
	<path id="path14" d="M279,188.8h24.1v55H279V188.8z"/>
	<path id="path16" d="M291,164c6.7,0,13,3.5,13,10.6c0,7.1-6.3,10.6-13,10.6c-6.7,0-13-3.5-13-10.6C278,167.5,284.3,164,291,164z"/>
	<path id="path18" d="M375,243.8h-27l-9.5-20.4h-2.8v20.4h-24.1v-77.1h24.1v39.1h2.8l7.3-17h26.9l-13,25.4L375,243.8z"/>
	<path id="path20" d="M440.6,243.8h-26.9l-9.6-20.4h-2.7v20.4h-24.1v-77.1h24.1v39.1h2.7l7.3-17h27l-13,25.4L440.6,243.8z"/>
	<path id="path22" d="M476,213.9c0-5.7-2.5-9-6.5-9c-5.6,0-7.3,4.2-7.3,11.8c0,7.1,2.2,10.1,6.8,10.1c4.2,0,6.9-3.3,6.9-9.3V213.9z
		 M477.8,197.3l3.3-8.4H500v55h-20.9l-3.1-9.5c-1.9,7.1-8.3,10.9-16.5,10.9c-14.2,0-22.1-10.6-22.1-28.5c0-19.2,9.1-29.4,24.3-29.4
		C470.3,187.4,475.6,191.4,477.8,197.3L477.8,197.3z"/>
	<path id="path24" class="st0" d="M46.2,274.4c0,2,0.8,3.9,3.1,5.9l2.8,2.5c1.8-1.6,3.3-4.7,3.3-8c0-3-1.6-4.7-4.6-4.7
		C47.9,270.2,46.2,271.8,46.2,274.4L46.2,274.4z M44.2,317c3.4,0,5.4-0.8,7-1.9l-14.3-12.5c-1.5,1.9-2.3,3.8-2.3,6.3
		C34.6,313.9,38.5,317,44.2,317z M80.2,335.1l-13.4-6.8c-5.6,4.8-15,7.8-26.7,7.8c-12.9,0-29.5-4.8-29.5-21.3
		c0-10.5,7.6-17.9,17.8-19.2c-6.8-6.4-9.9-12.1-9.9-19.8c0-13.5,10.9-22.2,30.7-22.2c14.9,0,27.7,5.9,27.7,19
		c0,10.2-8.5,16.5-17.1,17.4l8.5,7.4c1.5-2.1,2.1-5.4,2.5-8.1l19.5,6.1c-1.1,5.7-4.3,12-7.3,15.4l9.7,8.3L80.2,335.1z"/>
	<path id="path26" d="M107.8,333.2v-56.3H89.5v-21h61.7v21h-18.8v56.3H107.8z"/>
	<path id="path28" d="M180.2,303.3c0-5.7-2.5-9-6.5-9c-5.6,0-7.3,4.2-7.3,11.8c0,7.1,2.2,10.1,6.8,10.1c4.2,0,6.9-3.3,6.9-9.3V303.3
		z M182,286.6l3.3-8.4h18.8v55h-20.9l-3.1-9.5c-1.9,7.1-8.3,10.9-16.5,10.9c-14.2,0-22.1-10.6-22.1-28.5c0-19.2,9.1-29.4,24.3-29.4
		C174.5,276.7,179.7,280.8,182,286.6z"/>
	<path id="path30" d="M244.7,331.1c-2.6,1.9-6.7,3.1-13.1,3.1c-8.5,0-17.8-4.1-17.8-17.4v-60.8h24.1v53.8c0,3.3,1.3,4.5,3.2,4.5
		c1.7,0,1.9-0.1,3.3-0.8L244.7,331.1z"/>
	<path id="path32" d="M276.3,294.2c-4.4,0-6.1,3.7-6.1,11.5c0,7.7,1.7,11.5,6.1,11.5c4.4,0,6.1-3.7,6.1-11.5
		C282.4,297.9,280.7,294.2,276.3,294.2z M276.3,276.7c18.1,0,30.3,10.1,30.3,28.9c0,18.8-12.2,28.9-30.3,28.9S246,324.5,246,305.7
		C246,286.8,258.1,276.7,276.3,276.7L276.3,276.7z"/>
	<path id="path34" d="M344,323.2c-1.2,7.1-6.4,11.5-16.1,11.5c-10.6,0-17.5-6-17.5-18.7v-37.7h24.1v32.6c0,4,0.9,6.2,3.8,6.2
		c4.1,0,5.5-3,5.5-10.2v-28.6h24.1v55H347L344,323.2z"/>
	<path id="path36" d="M393,316.7c0.1,2.7,1.5,4.2,4.2,4.2c2.5,0,3.8-1.5,3.8-3.2c0-1.5-0.9-2.7-3.8-3l-5.6-0.5
		c-12.1-1.1-18.5-7.1-18.5-17.7c0-14.5,11.8-19.8,25.9-19.8c14,0,22.4,4.8,24.4,15.5l-20.3,2c0-2.6-1.2-4.1-4.1-4.1
		c-2.4,0-3.5,1.5-3.5,3.2c0,1.5,1.1,2.5,3.5,2.7l6,0.5c13.7,1.1,19.4,8.4,19.4,18.4c0,14.1-10.8,19.5-27.2,19.5
		c-11.1,0-22.1-2.2-24.4-13.2L393,316.7z"/>
</g>
</svg>
