<?xml version="1.0" encoding="utf-8"?>
<!-- Generator: Adobe Illustrator 27.2.0, SVG Export Plug-In . SVG Version: 6.00 Build 0)  -->
<svg version="1.1"
	 id="svg2" xmlns:inkscape="http://www.inkscape.org/namespaces/inkscape" xmlns:svg="http://www.w3.org/2000/svg" xmlns:sodipodi="http://sodipodi.sourceforge.net/DTD/sodipodi-0.dtd" xmlns:dc="http://purl.org/dc/elements/1.1/" xmlns:rdf="http://www.w3.org/1999/02/22-rdf-syntax-ns#" xmlns:cc="http://creativecommons.org/ns#"
	 xmlns="http://www.w3.org/2000/svg" xmlns:xlink="http://www.w3.org/1999/xlink" x="0px" y="0px" viewBox="0 0 500 500"
	 style="enable-background:new 0 0 500 500;" xml:space="preserve">
<style type="text/css">
	.st0{fill:#004F97;}
</style>
<g>
	<g id="g70" transform="translate(42.5197,1031.6891)">
		<path id="path72" inkscape:connector-curvature="0" class="st0" d="M-42.5-807.2v-12.5h25.4v12.5c-1.5,0.3-2.5,0.9-3.1,1.8
			c-0.6,0.8-0.9,2.2-0.9,4.2v0.7v0.7v30.7v1.1c0,2,0.1,3.5,0.4,4.6c0.3,1,0.7,2,1.4,2.8c1.6,1.7,3.7,2.6,6.3,2.6
			c5.5,0,8.2-3.3,8.2-9.9v-0.9v-31v-0.7v-0.6c0-2-0.3-3.4-0.8-4.3c-0.6-0.9-1.7-1.4-3.2-1.8v-12.5h23.1v12.5
			c-1.5,0.3-2.5,0.9-3.1,1.8c-0.6,0.9-0.9,2.3-0.9,4.2v1.4v26.4v5.3c0,4.2-0.2,7.3-0.6,9.4c-0.4,2.1-1.1,4.1-2.2,6
			c-1.9,3.2-4.7,5.6-8.4,7.3c-3.8,1.7-8.1,2.6-13.1,2.6c-7.8,0-13.9-1.9-18.2-5.7c-4.4-3.7-6.6-9-6.6-15.7v-4.4v-31.2v-1.4
			c0-1.9-0.3-3.3-0.8-4.2C-40-806.2-41-806.8-42.5-807.2"/>
	</g>
	<g id="g74" transform="translate(164.2981,1006.446)">
		<path id="path76" inkscape:connector-curvature="0" class="st0" d="M-74.4-763.3v-11.4H-55v36.5v1.2c0,1.9,0.1,3.3,0.2,4.1
			c0.1,0.9,0.4,1.5,0.9,1.9c0.4,0.4,1.2,0.8,2.3,1.2v11.5h-18.9v-3.7c-4.5,3.2-9.3,4.7-14.4,4.7c-3.5,0-6.5-0.6-8.9-1.9
			c-2.4-1.2-4.3-3-5.6-5.4c-1.3-2.4-1.9-5.3-1.9-8.6v-2V-755v-3c0-1.8-0.3-3-0.8-3.8c-0.6-0.7-1.5-1.2-2.9-1.5v-11.4h18.4
			c0.5,1.6,0.9,3.3,1,5.2c0.2,2.1,0.3,4.7,0.3,7.8v1.4v19.6v1.4c0,3.2,0.3,5.4,0.9,6.6c1.2,2.2,3.2,3.3,6.1,3.3c2.4,0,4.8-1,7.4-3
			V-755v-1.2v-1.8c0-1.3-0.1-2.2-0.2-2.7c-0.1-0.6-0.5-1.1-0.9-1.5C-72.5-762.5-73.3-762.9-74.4-763.3"/>
	</g>
	<g id="g78" transform="translate(257.3235,1017.4474)">
		<path id="path80" inkscape:connector-curvature="0" class="st0" d="M-98.8-782.4l1.7,0.7v14.2h-14.7v-0.6c0-2.4-0.5-4.2-1.4-5.3
			c-1-1.1-2.4-1.6-4.4-1.6c-1.7,0-3,0.5-3.9,1.4c-1,0.9-1.5,2.2-1.5,3.8c0,2,0.9,3.5,2.7,4.6c1.2,0.7,4.3,1.9,9.3,3.4
			c3.3,1,5.9,1.9,7.8,2.7c1.6,0.8,2.9,1.7,3.9,2.8c2.3,2.3,3.4,5.8,3.4,10.5c0,11.7-7,17.6-21,17.6c-2.3,0-4.7-0.1-7-0.4
			c-2.5-0.3-5-0.8-7.4-1.4c-3-0.8-5.9-1.7-8.7-2.6v-15.2h15.7v0.8c0,2.5,0.4,4.3,1.3,5.3c0.9,1.1,2.3,1.6,4.4,1.6
			c1.5,0,2.8-0.5,3.9-1.4c1-0.9,1.6-2.2,1.6-3.7c0-1.7-0.6-3.1-1.8-4c-1.2-0.9-3.7-1.9-7.6-3.1c-3.6-1.1-6.4-2.1-8.3-2.9
			c-1.7-0.7-3.3-1.6-4.6-2.6c-3-2.5-4.6-6.2-4.6-11c0-3.7,0.9-6.9,2.6-9.6c1.7-2.6,4.3-4.7,7.6-6.1c3.2-1.4,7.1-2.1,11.7-2.1
			C-112.3-786.7-105.9-785.3-98.8-782.4"/>
	</g>
	<g id="g82" transform="translate(300.8014,945.7106)">
		<path id="path84" inkscape:connector-curvature="0" class="st0" d="M-110.2-657.7h-22.9v-11.5c1-0.3,1.8-0.7,2.3-1.2
			c0.5-0.4,0.9-1.1,1-2c0.1-0.7,0.2-2.1,0.2-3.9v-1.2v-16.8v-1.2c0-2.6-0.2-4.3-0.6-5.2c-0.4-0.8-1.3-1.4-2.9-1.9V-714h19.4v36.5
			v1.2c0,1.9,0.1,3.2,0.2,3.9c0.2,0.9,0.5,1.6,1,2c0.5,0.4,1.2,0.8,2.3,1.2V-657.7z M-113.2-725.9c0,2.5-0.9,4.6-2.6,6.3
			c-1.7,1.7-3.9,2.6-6.3,2.6c-2.5,0-4.6-0.9-6.3-2.6c-1.7-1.7-2.6-3.9-2.6-6.3c0-2.5,0.9-4.6,2.6-6.3c1.7-1.7,3.9-2.6,6.3-2.6
			c2.5,0,4.6,0.9,6.3,2.6C-114.1-730.5-113.2-728.4-113.2-725.9"/>
	</g>
	<g id="g86" transform="translate(414.6935,1039.2241)">
		<path id="path88" inkscape:connector-curvature="0" class="st0" d="M-140-820.3v18h-16.9v-0.8v-0.4v-2.1c0-2.6-0.7-4.6-2.2-6
			c-1.5-1.4-3.6-2.1-6.1-2.1c-2.3,0-4.2,0.6-5.7,1.9c-1.5,1.3-2.3,2.9-2.3,4.9c0,1.7,0.7,3.2,2,4.4c1.3,1.2,3.6,2.4,7,3.7l7.3,2.8
			c6.8,2.6,11.5,5.4,14.1,8.6c2.6,3.2,3.9,7.7,3.9,13.5c0,4.9-1,9.2-3.1,12.8c-2.1,3.7-5.1,6.5-9.1,8.3c-3.9,1.9-8.5,2.9-13.8,2.9
			c-9.2,0-17.8-2.9-25.9-8.7v-19.1h17.4v0.8c0,3.5,0.3,5.9,1,7.3c1.4,2.7,3.9,4.1,7.6,4.1c2.4,0,4.4-0.7,6-2.2
			c1.5-1.4,2.3-3.4,2.3-5.7c0-1.6-0.3-3-1-4.1c-0.7-1.1-2-2.1-3.7-3.1c-2-1.1-4.7-2.3-8-3.6c-4.3-1.7-6.9-2.8-7.9-3.2
			c-0.9-0.4-2-0.9-3.3-1.6c-3.4-1.9-6-4.2-7.6-7.1c-1.7-2.9-2.5-6.4-2.5-10.5c0-4.6,1-8.6,3.1-12c2.1-3.4,5.1-5.9,9-7.6
			c3.9-1.7,8.5-2.6,14.1-2.6c4.6,0,9.1,0.7,13.4,2.2C-146.6-824.9-142.9-822.9-140-820.3"/>
	</g>
	<g id="g90" transform="translate(462.8526,1006.446)">
		<path id="path92" inkscape:connector-curvature="0" class="st0" d="M-152.6-763.3v-11.4h19.4v36.5v1.2c0,1.9,0.1,3.3,0.2,4.1
			c0.1,0.9,0.4,1.5,0.9,1.9c0.4,0.4,1.2,0.8,2.3,1.2v11.5h-18.9v-3.7c-4.5,3.2-9.3,4.7-14.4,4.7c-3.5,0-6.5-0.6-8.9-1.9
			c-2.4-1.2-4.3-3-5.6-5.4c-1.3-2.4-1.9-5.3-1.9-8.6v-2V-755v-3c0-1.8-0.3-3-0.8-3.8c-0.6-0.7-1.5-1.2-2.9-1.5v-11.4h18.4
			c0.5,1.6,0.9,3.3,1,5.2c0.2,2.1,0.3,4.7,0.3,7.8v1.4v19.6v1.4c0,3.2,0.3,5.4,0.9,6.6c1.2,2.2,3.2,3.3,6.1,3.3c2.4,0,4.8-1,7.4-3
			V-755v-1.2v-1.8c0-1.3-0.1-2.2-0.2-2.7c-0.1-0.6-0.5-1.1-0.9-1.5C-150.7-762.5-151.5-762.9-152.6-763.3"/>
	</g>
	<g id="g94" transform="translate(562.5881,996.5742)">
		<path id="path96" inkscape:connector-curvature="0" class="st0" d="M-178.8-746.1v18.8c0,3.3-0.2,5.8-0.7,7.5
			c-0.5,1.7-1.4,3.4-2.7,5c-1.8,2.3-4.4,4-7.8,5.3c-3.3,1.3-7.2,1.9-11.5,1.9c-4.3,0-8.1-0.6-11.3-1.9c-3.4-1.2-6-3-8-5.3
			c-1.3-1.7-2.2-3.5-2.7-5.2c-0.5-1.7-0.7-4.1-0.7-7.3v-18.8c0-1.9,0.1-3.6,0.3-5.2c0.1-1.4,0.5-2.8,1.1-4c0.5-1.1,1.1-2.1,2-3.2
			c2-2.4,4.6-4.2,7.9-5.4c3.3-1.2,7.1-1.8,11.4-1.8c4.4,0,8.2,0.6,11.5,1.8c3.4,1.3,6,3.1,7.7,5.4c1.3,1.6,2.2,3.2,2.7,4.9
			C-179-752-178.8-749.5-178.8-746.1 M-194.7-727.3v-1.6v-15.5v-1.6c0-2.7-0.6-4.8-1.7-6.2c-1.2-1.4-2.8-2.2-5-2.2
			c-2.1,0-3.7,0.7-4.9,2.2c-1.2,1.5-1.8,3.6-1.8,6.2v1.6v15.5v1.6c0.1,5.5,2.3,8.3,6.7,8.3c2.1,0,3.8-0.7,4.9-2.2
			C-195.3-722.7-194.7-724.7-194.7-727.3"/>
	</g>
	<g id="g98" transform="translate(572.0825,1006.446)">
		<path id="path100" inkscape:connector-curvature="0" class="st0" d="M-181.2-763.3v-11.4h18.9v3.9c2.5-1.9,4.7-3.1,6.6-3.8
			c2-0.7,4.2-1.1,6.6-1.1c4.7,0,9.1,1.8,13.1,5.5c5.1-3.7,10.3-5.5,15.8-5.5c1.8,0,3.6,0.2,5.2,0.7c1.6,0.4,3.2,1.2,4.8,2.2
			c1.3,0.9,2.5,2,3.6,3.2c1.7,2.3,2.6,5.3,2.6,9.2v22.1v3.1c0,1.6,0.3,2.8,0.8,3.6c0.5,0.8,1.4,1.4,2.7,1.6v11.5h-18.2
			c-0.6-1.6-0.9-3.1-1-4.3c-0.1-1.1-0.2-3.3-0.2-6.6v-2.2v-21.9c0-2.9-0.2-4.9-0.7-6.1c-0.3-0.7-0.7-1.4-1.3-2.1
			c-0.6-0.6-1.4-1-2.2-1.3c-0.9-0.3-1.8-0.4-2.6-0.4c-1.9,0-3.9,0.7-6.2,2v0.7v1.6v1.7v1.4v17.6v3.1c0,1.6,0.3,2.8,0.8,3.6
			c0.5,0.8,1.4,1.4,2.7,1.6v11.5h-18.2c-0.4-1.3-0.8-2.7-0.9-4.2c-0.2-1.4-0.3-3.3-0.3-5.6v-2.6v-22.6v-1.6c0-5.5-2.3-8.2-6.8-8.2
			c-1.7,0-3.5,0.6-5.6,1.7l-0.6,0.3v23.1c0,2.3,0.1,3.9,0.2,4.8c0.1,1.1,0.4,1.9,0.8,2.3c0.4,0.4,1.2,0.8,2.4,1.2v11.5h-22.9v-11.5
			c1.3-0.4,2.3-1.1,2.8-1.8c0.5-0.7,0.7-1.9,0.7-3.6v-1.7v-1.2V-755v-1.2v-1.2c0-1.9-0.2-3.3-0.7-4.1
			C-178.9-762.2-179.8-762.8-181.2-763.3"/>
	</g>
	<g id="g102" transform="translate(720,945.7106)">
		<path id="path104" inkscape:connector-curvature="0" class="st0" d="M-220-657.7h-22.9v-11.5c1-0.3,1.8-0.7,2.3-1.2
			c0.5-0.4,0.9-1.1,1-2c0.1-0.7,0.2-2.1,0.2-3.9v-1.2v-16.8v-1.2c0-2.6-0.2-4.3-0.6-5.2c-0.4-0.8-1.3-1.4-2.9-1.9V-714h19.4v36.5
			v1.2c0,1.9,0.1,3.2,0.2,3.9c0.2,0.9,0.5,1.6,1,2c0.5,0.4,1.2,0.8,2.3,1.2V-657.7z M-223-725.9c0,2.5-0.9,4.6-2.6,6.3
			c-1.7,1.7-3.9,2.6-6.3,2.6c-2.5,0-4.6-0.9-6.3-2.6c-1.7-1.7-2.6-3.9-2.6-6.3c0-2.5,0.9-4.6,2.6-6.3c1.7-1.7,3.9-2.6,6.3-2.6
			c2.5,0,4.6,0.9,6.3,2.6C-223.9-730.5-223-728.4-223-725.9"/>
	</g>
</g>
</svg>
